<svg width="484" height="272" viewBox="0 0 484 272" fill="none" xmlns="http://www.w3.org/2000/svg">
<rect x="1" y="1" width="482" height="270" fill="white" stroke="black" stroke-width="2"/>
<path d="M171.305 207.22V232H97.4521V207.22H171.305ZM105.265 54.2656V232H75.6016V54.2656H105.265ZM290.763 140.813V210.882C288.565 213.567 285.229 216.782 280.753 220.525C276.358 224.188 270.418 227.443 262.931 230.291C255.525 233.058 246.166 234.441 234.854 234.441C225.333 234.441 216.625 232.895 208.731 229.803C200.919 226.71 194.205 222.031 188.59 215.765C182.975 209.498 178.661 201.686 175.65 192.327C172.639 182.887 171.134 171.738 171.134 158.88V127.264C171.134 114.568 172.477 103.501 175.162 94.0605C177.929 84.6204 181.957 76.7673 187.247 70.501C192.537 64.1533 198.966 59.474 206.534 56.4629C214.103 53.3704 222.81 51.8242 232.657 51.8242C245.108 51.8242 255.484 54.0215 263.785 58.416C272.167 62.7292 278.556 69.1582 282.95 77.7031C287.426 86.1667 290.03 96.502 290.763 108.709H261.832C261.181 101.222 259.757 95.1592 257.56 90.5205C255.444 85.8005 252.392 82.3011 248.404 80.0225C244.417 77.7438 239.29 76.6045 233.023 76.6045C227.327 76.6045 222.444 77.5811 218.375 79.5342C214.306 81.4873 210.969 84.5391 208.365 88.6895C205.761 92.7585 203.849 97.9668 202.628 104.314C201.407 110.662 200.797 118.23 200.797 127.02V158.88C200.797 167.832 201.57 175.522 203.116 181.951C204.662 188.38 206.9 193.67 209.83 197.82C212.841 201.889 216.544 204.9 220.938 206.854C225.333 208.725 230.338 209.661 235.953 209.661C241.487 209.661 245.882 209.091 249.137 207.952C252.392 206.813 254.915 205.551 256.705 204.168C258.577 202.703 260.082 201.564 261.222 200.75V164.129H232.535V140.813H290.763Z" fill="black"/>
<path d="M385.318 186.102C385.318 182.439 384.911 179.184 384.098 176.336C383.365 173.406 381.941 170.761 379.825 168.401C377.709 166.041 374.698 163.722 370.792 161.443C366.967 159.165 362.003 156.845 355.899 154.485C348.901 151.8 342.35 148.87 336.246 145.696C330.224 142.441 324.894 138.779 320.255 134.71C315.698 130.56 312.117 125.717 309.513 120.184C306.909 114.65 305.606 108.221 305.606 100.896C305.606 93.6536 306.868 87.0618 309.391 81.1211C311.995 75.099 315.657 69.9313 320.377 65.6182C325.178 61.2236 330.875 57.8464 337.467 55.4863C344.059 53.0449 351.342 51.8242 359.317 51.8242C370.792 51.8242 380.598 54.2656 388.736 59.1484C396.956 64.0312 403.222 70.5824 407.535 78.8018C411.93 87.0212 414.127 96.1357 414.127 106.146H384.586C384.586 100.368 383.691 95.2406 381.9 90.7646C380.11 86.2887 377.343 82.7894 373.6 80.2666C369.856 77.7438 365.014 76.4824 359.073 76.4824C353.621 76.4824 349.104 77.5404 345.523 79.6562C342.024 81.7721 339.42 84.6611 337.711 88.3232C336.083 91.9854 335.27 96.1764 335.27 100.896C335.27 104.152 335.961 107.122 337.345 109.808C338.728 112.412 340.722 114.812 343.326 117.01C345.93 119.207 349.104 121.282 352.848 123.235C356.591 125.188 360.904 127.06 365.787 128.851C374.088 131.862 381.331 135.198 387.516 138.86C393.701 142.522 398.787 146.632 402.774 151.189C406.843 155.665 409.854 160.752 411.808 166.448C413.842 172.145 414.859 178.615 414.859 185.857C414.859 193.182 413.598 199.855 411.075 205.877C408.634 211.818 405.053 216.904 400.333 221.136C395.613 225.368 389.916 228.663 383.243 231.023C376.57 233.302 369.083 234.441 360.782 234.441C353.132 234.441 345.768 233.302 338.688 231.023C331.689 228.745 325.423 225.286 319.889 220.647C314.355 215.927 309.96 210.027 306.705 202.947C303.531 195.867 301.944 187.566 301.944 178.045H331.607C331.607 183.742 332.299 188.624 333.683 192.693C335.066 196.681 337.06 199.977 339.664 202.581C342.35 205.104 345.483 206.976 349.063 208.196C352.726 209.336 356.795 209.905 361.271 209.905C366.804 209.905 371.321 208.929 374.82 206.976C378.401 204.941 381.046 202.133 382.755 198.553C384.464 194.972 385.318 190.822 385.318 186.102Z" fill="url(#paint0_linear_0_1)"/>
<defs>
<linearGradient id="paint0_linear_0_1" x1="242" y1="0" x2="242" y2="293" gradientUnits="userSpaceOnUse">
<stop stop-color="#0075FF"/>
<stop offset="1" stop-color="#0044CC"/>
</linearGradient>
</defs>
</svg>
